<svg width="89" height="24" viewBox="0 0 89 24" fill="none" xmlns="http://www.w3.org/2000/svg">
<path d="M2.75 3.24991L4.83 3.60991L5.793 15.0829C5.87 16.0199 6.653 16.7389 7.593 16.7359H18.502C19.399 16.7379 20.16 16.0779 20.287 15.1899L21.236 8.63191C21.342 7.89891 20.833 7.21891 20.101 7.11291C20.037 7.10391 5.164 7.09891 5.164 7.09891" stroke="#1A162E" stroke-width="1.5" stroke-linecap="round" stroke-linejoin="round"/>
<path d="M14.125 10.7948H16.898" stroke="#1A162E" stroke-width="1.5" stroke-linecap="round" stroke-linejoin="round"/>
<path fill-rule="evenodd" clip-rule="evenodd" d="M7.15435 20.2025C7.45535 20.2025 7.69835 20.4465 7.69835 20.7465C7.69835 21.0475 7.45535 21.2915 7.15435 21.2915C6.85335 21.2915 6.61035 21.0475 6.61035 20.7465C6.61035 20.4465 6.85335 20.2025 7.15435 20.2025Z" fill="#1A162E" stroke="#1A162E" stroke-width="1.5" stroke-linecap="round" stroke-linejoin="round"/>
<path fill-rule="evenodd" clip-rule="evenodd" d="M18.4346 20.2025C18.7356 20.2025 18.9796 20.4465 18.9796 20.7465C18.9796 21.0475 18.7356 21.2915 18.4346 21.2915C18.1336 21.2915 17.8906 21.0475 17.8906 20.7465C17.8906 20.4465 18.1336 20.2025 18.4346 20.2025Z" fill="#1A162E" stroke="#1A162E" stroke-width="1.5" stroke-linecap="round" stroke-linejoin="round"/>
<path d="M42.805 12.715C42.805 11.86 42.535 11.17 41.98 10.645C41.455 10.12 40.6 9.67 39.43 9.31V5.875C40.21 6.04 40.78 6.565 41.125 7.435L42.64 6.61C42.16 5.35 41.065 4.375 39.445 4.18L39.46 2.635H38.26L38.245 4.18C37.3 4.3 36.505 4.675 35.89 5.305C35.275 5.92 34.96 6.655 34.96 7.495C34.96 8.395 35.26 9.1 35.86 9.61C36.385 10.09 37.18 10.51 38.275 10.855V14.35C37.255 14.155 36.535 13.54 36.13 12.475L34.585 13.285C35.17 14.89 36.49 15.865 38.245 16.045L38.26 17.53H39.46L39.445 16.045C40.48 15.925 41.305 15.55 41.905 14.905C42.505 14.26 42.805 13.54 42.805 12.715ZM36.835 7.39C36.835 6.61 37.42 6.01 38.275 5.845V8.935C37.315 8.56 36.835 8.11 36.835 7.39ZM39.415 11.245C40.48 11.665 40.915 12.115 40.915 12.82C40.915 13.615 40.315 14.2 39.415 14.365V11.245ZM49.5365 5.71C50.1965 5.71 50.8415 5.965 51.1865 6.205C51.3665 6.31 51.5915 6.475 51.8765 6.7L52.8065 5.35C51.8015 4.51 50.7215 4.09 49.5365 4.09C45.9215 4.09 44.3165 7.225 44.3165 10.54C44.3165 12.55 44.7515 13.99 45.6365 14.875C46.4915 15.73 47.5565 16.15 48.8315 16.15C50.0165 16.15 51.0215 15.775 51.8465 15.04C52.6865 14.305 53.1065 13.345 53.1065 12.19C53.1065 11.065 52.7315 10.15 51.9965 9.445C51.2615 8.74 50.3315 8.38 49.2065 8.38C48.0215 8.38 46.8215 8.92 46.1615 9.865H46.1465C46.2215 8.695 46.5365 7.705 47.1065 6.91C47.6915 6.115 48.5015 5.71 49.5365 5.71ZM48.8015 9.985C49.5065 9.985 50.0765 10.195 50.5265 10.615C50.9765 11.02 51.2015 11.575 51.2015 12.25C51.2015 13.57 50.1815 14.47 48.8015 14.47C48.0965 14.47 47.5115 14.26 47.0465 13.855C46.5815 13.45 46.3415 12.895 46.3415 12.205C46.3415 11.56 46.5815 11.035 47.0765 10.615C47.5715 10.195 48.1415 9.985 48.8015 9.985ZM58.395 16.135C59.595 16.135 60.615 15.79 61.44 15.085C62.265 14.38 62.685 13.435 62.685 12.25C62.685 11.155 62.325 10.255 61.62 9.55C60.915 8.845 59.97 8.485 58.815 8.485C57.9 8.485 57.12 8.755 56.49 9.28L56.955 5.92H62.115V4.255H55.56L54.675 10.45L56.25 11.095C56.85 10.42 57.585 10.09 58.47 10.09C59.775 10.09 60.78 10.9 60.78 12.28C60.78 12.94 60.555 13.465 60.09 13.855C59.64 14.245 59.085 14.44 58.425 14.44C57.3 14.44 56.49 13.87 55.995 12.73L54.405 13.615C55.125 15.28 56.595 16.135 58.395 16.135ZM64.2551 14.77C64.2551 15.475 64.8401 16.075 65.5601 16.075C66.2801 16.075 66.8651 15.49 66.8651 14.77C66.8651 14.035 66.2951 13.45 65.5601 13.45C64.8401 13.45 64.2551 14.035 64.2551 14.77ZM73.81 4.255L68.215 11.545V13.405H74.26V16H76.075V13.405H77.815V11.74H76.075V4.255H73.81ZM74.26 6.34V11.74H70.105L74.26 6.34ZM79.1487 16H87.4137V14.335H81.7587L84.4887 12.07C85.5237 11.215 86.2587 10.48 86.6937 9.865C87.1287 9.235 87.3537 8.485 87.3537 7.63C87.3537 6.58 86.9787 5.725 86.2287 5.08C85.4787 4.42 84.5187 4.09 83.3637 4.09C82.3587 4.09 81.4887 4.345 80.7537 4.87C80.0337 5.395 79.5537 6.085 79.3137 6.94L80.9637 7.63C81.4287 6.4 82.2237 5.785 83.3487 5.785C84.6537 5.785 85.4487 6.64 85.4487 7.765C85.4487 8.29 85.2987 8.755 84.9987 9.175C84.6987 9.58 84.1437 10.135 83.3487 10.81L79.1487 14.395V16Z" fill="#1A162E"/>
</svg>
